<svg version="1.1" xmlns="http://www.w3.org/2000/svg" viewBox="-266.23999710083007 -1011.7120239257813 3675.136083984375 1329.1520141601563"><desc>Created with Snap</desc><defs></defs><g><rect x="-266.23999710083007" y="-1011.7120239257813" width="3675.136083984375" height="1329.1520141601563" fill="#f5b82e" style=""></rect><g><g transform="matrix(1.024,0,0,-1.024,0,0)"><path d="M555 188L535 0L40 0L40 95L115 95L115 555L40 555L40 650L528 650L548 462L453 454L433 555L226 555L226 375L512 375L512 280L226 280L226 95L440 95L460 196L555 188ZM1166 82L1166 0L926 0L926 82L992 82L992 258Q992 322 969 348Q946 375 905 375Q854 375 824 342Q795 309 794 261L794 82L861 82L861 0L620 0L620 82L687 82L687 366L617 366L617 449L794 449L794 376Q841 458 943 458Q1007 458 1053 419Q1099 380 1099 297L1099 82L1166 82ZM1895 95L1895 0L1635 0L1635 95L1710 95L1710 283L1403 283L1403 95L1477 95L1477 0L1217 0L1217 95L1292 95L1292 555L1217 555L1217 650L1477 650L1477 555L1403 555L1403 377L1710 377L1710 555L1635 555L1635 650L1895 650L1895 555L1821 555L1821 95L1895 95ZM2497 82L2497 0L2320 0L2320 75Q2276 -9 2172 -9Q2108 -9 2061 29Q2015 68 2015 152L2015 367L1948 367L1948 449L2122 449L2122 191Q2122 127 2145 100Q2168 74 2210 74Q2260 74 2289 109Q2319 144 2320 192L2320 367L2240 367L2240 449L2427 449L2427 82L2497 82ZM3029 235Q3029 140 2979 65Q2929 -10 2825 -10Q2719 -10 2676 70Q2674 58 2671 35Q2668 12 2666 0L2560 0Q2566 33 2571 67Q2576 102 2576 135L2576 606L2509 606L2509 688L2682 688L2682 360Q2702 400 2738 429Q2775 458 2837 458Q2922 458 2975 399Q3029 341 3029 235ZM2918 226Q2918 297 2886 334Q2854 372 2804 372Q2747 372 2715 330Q2683 288 2682 239L2682 207Q2682 152 2714 113Q2747 75 2800 75Q2856 75 2887 116Q2918 157 2918 226Z" fill="#292929" style=""></path></g></g></g></svg>